<svg xmlns="http://www.w3.org/2000/svg" xml:space="preserve" style="border-radius:14px;background:#fff" viewBox="0 0 192 194"><path d="M103 183.8c-5.8.4-11.4.7-17.1.8-7.4 0-45.2-1.7-52.8-2.2-2-.1-1.4-5.4-1.4-5.8 1.2-13 .2-26.1-1.2-39.1-1.2-11.7-2.7-23.3-3.5-35a735 735 0 0 1 6.2-90.8c6.3.8 12.6.7 19 .1.8 12.4-.3 24.8-1.4 37.2-.9 11.3 1.2 45 1.7 57 .5 12.5.4 25 .5 37.5l.3 36.1 1 .2c2.1.3 33.2 1.3 48.1 0 2.6-.2 3 3.8.5 4zm76.4-172.3a4275 4275 0 0 0-94-.4c-9 0-10.2-.6-19-.5-1.1 0-2 1.3-1.8 2.2.1 1.2 1.1 1.8 2.2 1.8 19.2-.3 30.7.4 49.9.4-3.3 23-5 33.2-4.5 56.3.6 23.2 2.1 46.3 2.8 69.5a548.8 548.8 0 0 1-.3 39v.1c6.1-.7 12.1-.1 18.2.4l1.5-67.7c.5-23 2.4-33 3-56.1l.8-39c0-.5-.1-1-.4-1.5 1.9 0 12.9-.9 14.8-.9l26.2.4c1.1 0 2.1-.6 2.3-1.7.1-1-.6-2.3-1.7-2.3z"/><path d="M103.4 80.3a401.1 401.1 0 0 0-10.7-5.6l-1.1-6c.7-4.1.7-7.6 0-10.6-.8-3.5-2.8-6.5-5.3-8a7 7 0 0 0-4.1-1c-1.8.2-3.3 1-4.9 1.6l-.2.1c-2.3 1.2-5.6 3-6.9 7.2-1.2 4 .4 8.6 2.2 11.3l.5 7.9-1.2.7-1.3 1.4-.7.8a19 19 0 0 1-4.9 4c-.3.2-.6.5-.7 1a1619.2 1619.2 0 0 0-1.2 39.6l-.1 9.3c-.1 1.8 1.3 11.5 1.3 11.6.1.5.2.8 19.2-.1a558 558 0 0 0 20.8-1.4c.8-.2 1.3-1.1 1.3-1.9l-.6-22.4-.7-25c.1-14-.4-14.4-.7-14.5zM73.3 59.9c.3-2.2 1.8-3.8 4.5-5.2l.3-.2c2.1-1 4.3-2 6.3-1a8 8 0 0 1 3.8 4.9c.6 2.4.7 5.1.3 8.3l-6.7.4-1.3.1c-1.9.2-3.8.3-5.5-.2a10.4 10.4 0 0 1-1.7-7.1zm8 70.3.2-.4c.5-.7.7-1.1 1.3-1 1.6 0 2.3 1.9 2.7 4l-5.2-.3h-1c.9-.6 1.4-1.5 2-2.3zm-.4-5.6c-.2-.8-.5-1.4-1-2a7.2 7.2 0 0 0-2.2-2c1.7-.7 2.7-2 3.2-3.6.2-.5.3-1.1.3-1.7 1.7.7 3.4.7 4.7 0 .5-.3 1-.7 1.4-1.2a9.3 9.3 0 0 0 3.9 2.2 6 6 0 0 0-.9 2.4c-.1 1.1 0 2.2.6 3.2-1 .3-2 .7-2.7 1.5a7 7 0 0 0-1.5 2.4 6.4 6.4 0 0 0-4.5-1.5 5 5 0 0 0-1.3.3zm9.4 5v-.2c.2-.9.3-2 .9-2.7 1-1.3 3.4 0 4.9.6l.3.2c.9.4 2 0 2.6-.9.7-.9.6-2-.2-2.7l-2.7-2.7-.4-.3c-.5-.5-1-1-1-1.5.2-1.6 2.3-2.3 3.8-2.8l.4-.2c1-.3 1.5-1.3 1.2-2.5-.3-1-1.3-2-2.5-1.7-1.5.3-4.4.6-6.6-.9-1.4-.8-2.1-2.2-2.5-4.4l-.4-3c-.1-.5-.5-1-1-1.3-.5-.4-1-.5-1.6-.4-1.2.2-2 1.3-1.8 2.6 0 .9.2 1.6.3 2.3l.1 2v.3c0 .5 0 1.7-.3 2-.1 0-.5.2-1.7-.6-.9-.7-1.7-1.6-2.4-2.7-.7-1.2-2-1.3-3-.9-.9.5-1.5 1.6-1 2.9 1 2 1.3 4 1 5.4 0 .5-.9 1.4-5 2.3h-.3c-.9.3-1.6 1-1.7 1.9-.2.8.2 1.6.9 2.1a12 12 0 0 0 2.7 1.5c1 .5 2 .9 2.8 1.6.5.5.7 1 .5 2l-.7 2.3-.4 1c-.2.9 0 1.7.4 2.2h-9.7l.3-42.2c2 0 8.9-.2 34.1-2l1.1 43.6a66 66 0 0 1-11.6 1c0-1.1 0-2.2.2-3.2z"/></svg>